<svg width="27" height="26" viewBox="0 0 27 26" fill="none" xmlns="http://www.w3.org/2000/svg">
<path d="M6.39575 5.75016C7.64867 5.75016 8.81117 6.396 9.767 7.53266C10.4774 6.77058 11.317 6.21516 12.2083 5.94391V3.16683C12.2083 2.48169 12.4804 1.82461 12.9649 1.34014C13.4494 0.855668 14.1064 0.583496 14.7916 0.583496H17.3749V3.16683H14.7916V5.94391C15.6828 6.21516 16.5224 6.77058 17.2328 7.53266C18.1887 6.396 19.3512 5.75016 20.6041 5.75016C23.8333 5.75016 26.4166 10.0902 26.4166 15.4377C26.4166 20.7852 23.8333 25.1252 20.6041 25.1252C19.3512 25.1252 18.1887 24.4793 17.2328 23.3427C16.1866 24.4793 14.8949 25.1252 13.4999 25.1252C12.1049 25.1252 10.8133 24.4793 9.767 23.3427C8.81117 24.4793 7.64867 25.1252 6.39575 25.1252C3.16659 25.1252 0.583252 20.7852 0.583252 15.4377C0.583252 10.0902 3.16659 5.75016 6.39575 5.75016ZM9.62492 10.9168L8.01034 13.8231H11.2395L9.62492 10.9168ZM17.3749 10.9168L15.7603 13.8231H18.9895L17.3749 10.9168ZM8.33325 19.9585H10.9166L12.2083 18.6668L13.4999 19.9585H16.0833L17.3749 18.6668L18.6666 19.9585L20.6041 16.0835L15.9799 16.8843L14.7916 18.6668L13.4999 17.3752H10.9166L9.62492 18.6668L8.33325 17.3752L5.74992 16.0835L8.33325 19.9585Z" fill="white"/>
</svg>
