<svg width="51" height="51" viewBox="0 0 51 51" fill="none" xmlns="http://www.w3.org/2000/svg">
<rect x="0.36792" width="50.2643" height="50.2643" rx="5" fill="#FF693A"/>
<path d="M25.9011 16.6154C21.4124 16.6154 17.7898 20.2381 17.7898 24.7269C17.7898 29.2157 21.4124 32.8384 25.9011 32.8384C30.3898 32.8384 34.0125 29.2157 34.0125 24.7269C34.0125 20.2381 30.3898 16.6154 25.9011 16.6154ZM25.9011 29.9988C22.9983 29.9988 20.6293 27.6298 20.6293 24.7269C20.6293 21.824 22.9983 19.455 25.9011 19.455C28.804 19.455 31.1729 21.824 31.1729 24.7269C31.1729 27.6298 28.804 29.9988 25.9011 29.9988ZM34.3447 14.3927C33.2966 14.3927 32.4503 15.2391 32.4503 16.2871C32.4503 17.3352 33.2966 18.1815 34.3447 18.1815C35.3927 18.1815 36.239 17.3391 36.239 16.2871C36.2394 16.0383 36.1906 15.7918 36.0955 15.5618C36.0004 15.3318 35.8609 15.1229 35.6849 14.9469C35.5089 14.7709 35.3 14.6314 35.07 14.5363C34.84 14.4412 34.5935 14.3924 34.3447 14.3927ZM41.7125 24.7269C41.7125 22.5438 41.7323 20.3805 41.6097 18.2013C41.4871 15.6702 40.9097 13.4238 39.0588 11.5729C37.204 9.71804 34.9616 9.14457 32.4305 9.02197C30.2475 8.89937 28.0842 8.91915 25.9051 8.91915C23.722 8.91915 21.5587 8.89937 19.3796 9.02197C16.8485 9.14457 14.6022 9.72199 12.7513 11.5729C10.8965 13.4277 10.323 15.6702 10.2004 18.2013C10.0778 20.3844 10.0976 22.5477 10.0976 24.7269C10.0976 26.906 10.0778 29.0733 10.2004 31.2525C10.323 33.7836 10.9004 36.03 12.7513 37.8809C14.6061 39.7358 16.8485 40.3092 19.3796 40.4318C21.5627 40.5544 23.726 40.5346 25.9051 40.5346C28.0881 40.5346 30.2514 40.5544 32.4305 40.4318C34.9616 40.3092 37.208 39.7318 39.0588 37.8809C40.9137 36.0261 41.4871 33.7836 41.6097 31.2525C41.7363 29.0733 41.7125 26.91 41.7125 24.7269ZM38.2323 34.0526C37.9436 34.7724 37.5956 35.3102 37.0379 35.8639C36.4803 36.4215 35.9464 36.7696 35.2266 37.0583C33.1464 37.8849 28.2068 37.699 25.9011 37.699C23.5954 37.699 18.6519 37.8849 16.5717 37.0622C15.8519 36.7735 15.314 36.4255 14.7604 35.8679C14.2027 35.3102 13.8547 34.7763 13.566 34.0565C12.7434 31.9723 12.9293 27.0326 12.9293 24.7269C12.9293 22.4212 12.7434 17.4776 13.566 15.3973C13.8547 14.6775 14.2027 14.1396 14.7604 13.5859C15.318 13.0322 15.8519 12.6803 16.5717 12.3916C18.6519 11.5689 23.5954 11.7548 25.9011 11.7548C28.2068 11.7548 33.1503 11.5689 35.2306 12.3916C35.9503 12.6803 36.4882 13.0283 37.0419 13.5859C37.5995 14.1436 37.9475 14.6775 38.2362 15.3973C39.0588 17.4776 38.873 22.4212 38.873 24.7269C38.873 27.0326 39.0588 31.9723 38.2323 34.0526Z" fill="white"/>
</svg>
