<svg width="37" height="71" viewBox="0 0 37 71" fill="none" xmlns="http://www.w3.org/2000/svg">
<rect x="7" y="1" width="24" height="47" rx="12" stroke="white" stroke-width="2"/>
<circle cx="19" cy="11" r="5" fill="#FF693A"/>
<path d="M4.03 66.091C3.39733 66.091 2.82533 65.9827 2.314 65.766C1.81133 65.5493 1.41267 65.2373 1.118 64.83C0.823333 64.4227 0.671667 63.9417 0.663 63.387H2.613C2.639 63.7597 2.769 64.0543 3.003 64.271C3.24567 64.4877 3.575 64.596 3.991 64.596C4.41567 64.596 4.74933 64.4963 4.992 64.297C5.23467 64.089 5.356 63.8203 5.356 63.491C5.356 63.2223 5.27367 63.0013 5.109 62.828C4.94433 62.6547 4.73633 62.5203 4.485 62.425C4.24233 62.321 3.90433 62.2083 3.471 62.087C2.88167 61.9137 2.40067 61.7447 2.028 61.58C1.664 61.4067 1.34767 61.151 1.079 60.813C0.819 60.4663 0.689 60.007 0.689 59.435C0.689 58.8977 0.823333 58.4297 1.092 58.031C1.36067 57.6323 1.73767 57.329 2.223 57.121C2.70833 56.9043 3.263 56.796 3.887 56.796C4.823 56.796 5.58133 57.0257 6.162 57.485C6.75133 57.9357 7.07633 58.5683 7.137 59.383H5.135C5.11767 59.071 4.98333 58.8153 4.732 58.616C4.48933 58.408 4.16433 58.304 3.757 58.304C3.40167 58.304 3.11567 58.395 2.899 58.577C2.691 58.759 2.587 59.0233 2.587 59.37C2.587 59.6127 2.665 59.8163 2.821 59.981C2.98567 60.137 3.185 60.267 3.419 60.371C3.66167 60.4663 3.99967 60.579 4.433 60.709C5.02233 60.8823 5.50333 61.0557 5.876 61.229C6.24867 61.4023 6.56933 61.6623 6.838 62.009C7.10667 62.3557 7.241 62.8107 7.241 63.374C7.241 63.8593 7.11533 64.31 6.864 64.726C6.61267 65.142 6.24433 65.4757 5.759 65.727C5.27367 65.9697 4.69733 66.091 4.03 66.091ZM8.35087 62.399C8.35087 61.6537 8.50254 61.0037 8.80588 60.449C9.10921 59.8857 9.52954 59.4523 10.0669 59.149C10.6042 58.837 11.2195 58.681 11.9129 58.681C12.8055 58.681 13.5422 58.9063 14.1229 59.357C14.7122 59.799 15.1065 60.423 15.3059 61.229H13.3429C13.2389 60.917 13.0612 60.6743 12.8099 60.501C12.5672 60.319 12.2639 60.228 11.8999 60.228C11.3799 60.228 10.9682 60.4187 10.6649 60.8C10.3615 61.1727 10.2099 61.7057 10.2099 62.399C10.2099 63.0837 10.3615 63.6167 10.6649 63.998C10.9682 64.3707 11.3799 64.557 11.8999 64.557C12.6365 64.557 13.1175 64.2277 13.3429 63.569H15.3059C15.1065 64.349 14.7122 64.9687 14.1229 65.428C13.5335 65.8873 12.7969 66.117 11.9129 66.117C11.2195 66.117 10.6042 65.9653 10.0669 65.662C9.52954 65.35 9.10921 64.9167 8.80588 64.362C8.50254 63.7987 8.35087 63.1443 8.35087 62.399ZM18.4592 59.916C18.6932 59.5347 18.9965 59.2357 19.3692 59.019C19.7505 58.8023 20.1839 58.694 20.6692 58.694V60.605H20.1882C19.6162 60.605 19.1829 60.7393 18.8882 61.008C18.6022 61.2767 18.4592 61.7447 18.4592 62.412V66H16.6392V58.798H18.4592V59.916ZM25.093 66.117C24.3997 66.117 23.7757 65.9653 23.221 65.662C22.6664 65.35 22.2287 64.9123 21.908 64.349C21.596 63.7857 21.44 63.1357 21.44 62.399C21.44 61.6623 21.6004 61.0123 21.921 60.449C22.2504 59.8857 22.6967 59.4523 23.26 59.149C23.8234 58.837 24.4517 58.681 25.145 58.681C25.8384 58.681 26.4667 58.837 27.03 59.149C27.5934 59.4523 28.0354 59.8857 28.356 60.449C28.6854 61.0123 28.85 61.6623 28.85 62.399C28.85 63.1357 28.681 63.7857 28.343 64.349C28.0137 64.9123 27.563 65.35 26.991 65.662C26.4277 65.9653 25.795 66.117 25.093 66.117ZM25.093 64.531C25.4224 64.531 25.73 64.453 26.016 64.297C26.3107 64.1323 26.5447 63.8897 26.718 63.569C26.8914 63.2483 26.978 62.8583 26.978 62.399C26.978 61.7143 26.796 61.19 26.432 60.826C26.0767 60.4533 25.639 60.267 25.119 60.267C24.599 60.267 24.1614 60.4533 23.806 60.826C23.4594 61.19 23.286 61.7143 23.286 62.399C23.286 63.0837 23.455 63.6123 23.793 63.985C24.1397 64.349 24.573 64.531 25.093 64.531ZM32.0051 56.38V66H30.1851V56.38H32.0051ZM35.6233 56.38V66H33.8033V56.38H35.6233Z" fill="white"/>
</svg>
