<svg width="51" height="51" viewBox="0 0 51 51" fill="none" xmlns="http://www.w3.org/2000/svg">
<rect x="0.73584" width="50.2643" height="50.2643" rx="5" fill="#FF693A"/>
<path d="M19.5387 38.9139C32.3883 38.9139 39.4175 28.3064 39.4175 19.1238C39.4175 18.827 39.4175 18.5259 39.4048 18.2291C40.7733 17.2421 41.9544 16.0201 42.8928 14.6205C41.6144 15.182 40.2598 15.5521 38.8727 15.7187C40.3338 14.8487 41.428 13.4797 41.9521 11.8663C40.5795 12.6765 39.0771 13.2452 37.5107 13.5476C36.4577 12.4303 35.0643 11.6901 33.5462 11.4417C32.0282 11.1933 30.4703 11.4506 29.1139 12.1736C27.7575 12.8966 26.6782 14.0451 26.0432 15.4411C25.4083 16.8371 25.2531 18.4028 25.6018 19.8956C22.824 19.7568 20.1065 19.0379 17.6256 17.7854C15.1447 16.5329 12.9558 14.7749 11.2007 12.6253C10.3098 14.1584 10.0379 15.9719 10.4402 17.6975C10.8426 19.423 11.8891 20.9313 13.3672 21.9161C12.2596 21.8786 11.1763 21.5823 10.2048 21.0511V21.1465C10.2067 22.7525 10.7651 24.3086 11.7857 25.5518C12.8063 26.7949 14.2264 27.6489 15.806 27.9693C15.2064 28.1339 14.5871 28.2159 13.9652 28.2132C13.5267 28.2145 13.0892 28.174 12.6585 28.0923C13.105 29.4748 13.9743 30.6836 15.1447 31.5493C16.3151 32.415 17.728 32.8943 19.1855 32.92C16.7095 34.8575 13.6511 35.9083 10.5027 35.9032C9.94795 35.9055 9.39358 35.8737 8.84277 35.8078C12.0382 37.8374 15.7492 38.9151 19.5387 38.9139Z" fill="white"/>
</svg>
